Coordinates
version=1
nRows=60
nColumns=12
inDegrees=yes

Units are S.I. units (second, meters, Newtons, ...)
Angles are in degrees

endheader
time	SC_y	SC_z	SC_x	AC_y	AC_z	AC_x	GH_y	GH_z	GH_yy	EL_x	PS_y
       0.0              -50.54          35.49           4.27          52.94         -4.099          11.25          3.337          19.57         -175.1          53.92          151.0
   0.02962              -50.54          35.49          4.273          52.94         -4.098          11.25          3.311          19.58         -175.1          53.92          151.0
   0.05924              -50.54          35.49          4.275          52.94         -4.097          11.25          3.283          19.59         -175.0          53.92          151.0
   0.08886              -50.54          35.49          4.277          52.94         -4.096          11.25          3.253           19.6         -175.0          53.92          151.0
    0.1185              -50.54          35.48           4.28          52.94         -4.095          11.25          3.221          19.61         -174.9          53.92          150.9
    0.1481              -50.54          35.48          4.283          52.94         -4.094          11.26          3.187          19.62         -174.9          53.92          150.9
    0.1777              -50.55          35.48          4.286          52.94         -4.093          11.26           3.15          19.63         -174.8          53.91          150.9
    0.2073              -50.55          35.47          4.289          52.94         -4.092          11.26          3.112          19.64         -174.7          53.91          150.9
     0.237              -50.55          35.47          4.292          52.94         -4.091          11.26           3.07          19.65         -174.7          53.91          150.9
    0.2666              -50.55          35.47          4.296          52.94         -4.089          11.26          3.026          19.66         -174.6          53.91          150.8
    0.2962              -50.55          35.46            4.3          52.94         -4.088          11.27          2.978          19.68         -174.5          53.91          150.8
    0.3258              -50.55          35.46          4.304          52.94         -4.087          11.27          2.926          19.69         -174.4          53.91          150.8
    0.3554              -50.55          35.45          4.309          52.95         -4.085          11.27          2.871          19.71         -174.3          53.91          150.7
     0.385              -50.56          35.45          4.314          52.95         -4.083          11.27          2.811          19.73         -174.2           53.9          150.7
    0.4147              -50.56          35.44          4.319          52.95         -4.081          11.27          2.746          19.75         -174.1           53.9          150.6
    0.4443              -50.56          35.44          4.325          52.95         -4.079          11.28          2.676          19.77         -174.0           53.9          150.6
    0.4739              -50.56          35.43          4.331          52.95         -4.077          11.28          2.599          19.79         -173.8           53.9          150.5
    0.5035              -50.57          35.42          4.338          52.95         -4.074          11.28          2.516          19.81         -173.7           53.9          150.5
    0.5331              -50.57          35.42          4.345          52.95         -4.072          11.29          2.425          19.84         -173.5          53.89          150.4
    0.5628              -50.57          35.41          4.353          52.95         -4.069          11.29          2.325          19.87         -173.3          53.89          150.4
    0.5924              -50.58           35.4          4.362          52.95         -4.066           11.3          2.216           19.9         -173.2          53.89          150.3
     0.622              -50.58          35.39          4.372          52.95         -4.062           11.3          2.095          19.94         -172.9          53.88          150.2
    0.6516              -50.59          35.38          4.383          52.95         -4.058          11.31          1.962          19.98         -172.7          53.88          150.1
    0.6812              -50.59          35.37          4.395          52.96         -4.054          11.31          1.815          20.02         -172.4          53.87          150.0
    0.7109               -50.6          35.35          4.409          52.96         -4.049          11.32          1.651          20.07         -172.1          53.87          149.9
    0.7405               -50.6          35.34          4.424          52.96         -4.044          11.33          1.469          20.12         -171.8          53.86          149.8
    0.7701              -50.61          35.32          4.441          52.96         -4.038          11.34          1.264          20.18         -171.5          53.86          149.7
    0.7997              -50.62           35.3          4.459          52.96         -4.031          11.35          1.034          20.25         -171.1          53.85          149.5
    0.8293              -50.63          35.28          4.481          52.97         -4.023          11.36         0.7733          20.33         -170.6          53.84          149.3
     0.859              -50.64          35.25          4.505          52.97         -4.015          11.37         0.4778          20.42         -170.1          53.83          149.2
    0.8886              -50.65          35.23          4.533          52.97         -4.005          11.38         0.1406          20.52         -169.5          53.82          148.9
    0.9182              -50.66          35.19          4.565          52.98         -3.993           11.4        -0.2464          20.63         -168.8          53.81          148.7
    0.9478              -50.67          35.16          4.601          52.98          -3.98          11.42        -0.6932          20.76         -168.0           53.8          148.4
    0.9774              -50.69          35.11          4.644          52.99         -3.965          11.44         -1.212          20.92         -167.1          53.78          148.1
     1.007              -50.71          35.06          4.694          52.99         -3.947          11.47          -1.82           21.1         -166.0          53.76          147.7
     1.037              -50.74           35.0          4.753           53.0         -3.926           11.5         -2.536          21.31         -164.7          53.74          147.2
     1.066              -50.76          34.93          4.822          53.01         -3.901          11.53         -3.387          21.56         -163.2          53.71          146.6
     1.096               -50.8          34.84          4.906          53.02         -3.871          11.58         -4.407          21.86         -161.4          53.68          146.0
     1.126              -50.84          34.74          5.007          53.03         -3.835          11.63         -5.641          22.23         -159.2          53.64          145.2
     1.155              -50.89          34.61          5.131          53.05         -3.791          11.69         -7.149          22.67         -156.5           53.6          144.2
     1.185              -50.95          34.46          5.284          53.07         -3.736          11.77          -9.01          23.22         -153.2          53.54          143.0
     1.214              -51.03          34.26          5.474          53.09         -3.668          11.87         -11.33          23.91         -149.1          53.47          141.4
     1.244              -51.13          34.02          5.714          53.12         -3.582          11.99         -14.25          24.77         -143.9          53.38          139.5
     1.274              -51.25          33.71          6.019          53.16         -3.473          12.15         -17.97          25.87         -137.3          53.26          137.1
     1.303              -51.41          33.31           6.41          53.21         -3.334          12.35         -22.72          27.28         -128.9          53.11          134.0
     1.333              -51.62           32.8          6.911          53.27         -3.154           12.6         -28.83          29.08         -118.0          52.93          130.0
     1.362              -51.88          32.14          7.551          53.35         -2.926          12.93         -36.62          31.38         -104.2          52.68          124.9
     1.392              -52.21          31.32          8.356          53.46         -2.638          13.35         -46.43          34.28         -86.79          52.38          118.5
     1.422              -52.61          30.32          9.336          53.58         -2.287          13.85         -58.37          37.81         -65.58          52.01          110.7
     1.451              -53.07          29.16          10.47          53.72         -1.881          14.43         -72.22          41.91          -41.0          51.58          101.7
     1.481              -53.58           27.9           11.7          53.88         -1.441          15.06         -87.21          46.34         -14.38          51.12          91.88
     1.511              -54.08          26.64          12.93          54.03         -1.001          15.69         -102.2          50.77          12.24          50.65          82.08
      1.54              -54.54          25.48          14.07          54.18        -0.5944          16.28         -116.1          54.86          36.82          50.23          73.04
      1.57              -54.95          24.48          15.05           54.3        -0.2438          16.78         -128.0           58.4          58.03          49.86          65.24
     1.599              -55.27          23.66          15.86           54.4        0.04397          17.19         -137.8          61.29          75.43          49.55          58.83
     1.629              -55.54           23.0           16.5          54.48         0.2728          17.52         -145.6           63.6          89.27          49.31          53.74
     1.659              -55.74          22.49           17.0          54.55         0.4519          17.78         -151.7           65.4          100.1          49.12          49.75
     1.688               -55.9          22.09          17.39           54.6         0.5915          17.98         -156.5          66.81          108.6          48.98          46.65
     1.718              -56.02          21.78          17.69          54.64         0.7006          18.13         -160.2          67.91          115.1          48.86          44.22
     1.748              -56.12          21.54          17.93          54.67         0.7864          18.26         -163.1          68.77          120.3          48.77          42.31
